<svg width="20" height="20" viewBox="0 0 20 20" fill="none" xmlns="http://www.w3.org/2000/svg">
<g clip-path="url(#clip0_0_499)">
<path d="M19.1667 10.0335C19.1667 4.95232 15.0626 0.833172 10 0.833172C4.93744 0.833172 0.833374 4.95232 0.833374 10.0335C0.833374 14.3483 3.79292 17.9687 7.78559 18.963V12.845H5.89535V10.0335H7.78559V8.82206C7.78559 5.69056 9.19755 4.23911 12.2607 4.23911C12.8414 4.23911 13.8435 4.35338 14.2534 4.46768V7.01633C14.037 6.99347 13.6613 6.98203 13.1944 6.98203C11.6913 6.98203 11.1106 7.55348 11.1106 9.03923V10.0335H14.1047L13.5904 12.845H11.1106V19.1665C15.6494 18.6163 19.1667 14.7374 19.1667 10.0335Z" fill="#5F7896"/>
</g>
<defs>
<clipPath id="clip0_0_499">
<rect width="20" height="20" fill="white"/>
</clipPath>
</defs>
</svg>
