<svg width="35" height="34" viewBox="0 0 35 34" fill="none" xmlns="http://www.w3.org/2000/svg">
<path d="M14.8877 22.0156C15.9946 21.3834 16.8963 21.9016 16.8965 23.166V27.9326C16.8579 28.6233 16.6564 29.2958 16.3076 29.8955C15.9587 30.4952 15.4723 31.0064 14.8877 31.3867L11.4521 33.3398C10.8281 33.6519 10.1379 33.8145 9.43848 33.8145C8.73928 33.8144 8.04974 33.6518 7.42578 33.3398L3.24414 30.957C2.13718 30.3247 2.13718 29.2944 3.24414 28.6621L14.8877 22.0156ZM17.5 23.165C17.5002 21.9016 18.4399 21.3829 19.5928 22.0146L31.7217 28.6582C32.8743 29.29 32.8743 30.3184 31.7217 30.9502L27.3652 33.3398C26.7152 33.6517 25.997 33.8144 25.2686 33.8145C24.54 33.8145 23.8219 33.6517 23.1719 33.3398L19.5928 31.3799C18.9846 31.0011 18.4787 30.4923 18.1152 29.8945C17.7518 29.2966 17.5409 28.6256 17.5 27.9365V23.165ZM7.46191 15.1074C8.16079 15.1075 8.84999 15.2706 9.47363 15.583L13.6533 17.9531C14.7595 18.5863 14.7596 19.6179 13.6533 20.251L2.01562 26.9072C0.909537 27.5399 0 27.0201 0 25.7539V20.9814C0.040069 20.2903 0.243629 19.6178 0.59375 19.0186C0.943872 18.4195 1.43066 17.9099 2.01562 17.5312L5.4502 15.583C6.07383 15.2707 6.76307 15.1074 7.46191 15.1074ZM27.2314 15.1074C27.9598 15.1074 28.6781 15.2707 29.3281 15.583L32.9072 17.5312C33.516 17.9103 34.0223 18.4203 34.3857 19.0195C34.7492 19.6187 34.9599 20.2909 35 20.9814V25.7539C35 27.0202 34.0603 27.5403 32.9072 26.9072L20.7783 20.251C19.6253 19.6179 19.6254 18.5863 20.7783 17.9531L25.1348 15.583C25.7848 15.2706 26.503 15.1075 27.2314 15.1074ZM14.2168 0.907227C15.3561 0.245173 16.2928 0.788315 16.293 2.1123V16.0342C16.2928 17.3582 15.3561 17.9013 14.2168 17.2393L9.9209 14.6924C9.31848 14.2965 8.81662 13.7641 8.45605 13.1377C8.09549 12.5111 7.886 11.8078 7.84473 11.085V6.97656C7.886 6.25375 8.0955 5.55039 8.45605 4.92383C8.81662 4.29748 9.31849 3.76504 9.9209 3.36914L14.2168 0.907227ZM18.707 2.1123C18.7072 0.788407 19.6352 0.245386 20.7744 0.907227L25.0791 3.36914C25.6815 3.76505 26.1834 4.29746 26.5439 4.92383C26.9046 5.55039 27.1141 6.25375 27.1553 6.97656V11.085C27.1141 11.8078 26.9046 12.5111 26.5439 13.1377C26.1834 13.7641 25.6815 14.2965 25.0791 14.6924L20.7744 17.2393C19.6352 17.9011 18.7072 17.3581 18.707 16.0342V2.1123Z" fill="#36485C"/>
</svg>
